<?xml version="1.0" encoding="iso-8859-1"?>
<!-- Generator: Adobe Illustrator 18.0.0, SVG Export Plug-In . SVG Version: 6.00 Build 0)  -->
<!DOCTYPE svg PUBLIC "-//W3C//DTD SVG 1.1//EN" "http://www.w3.org/Graphics/SVG/1.1/DTD/svg11.dtd">
<svg version="1.1" id="Capa_1" xmlns="http://www.w3.org/2000/svg" xmlns:xlink="http://www.w3.org/1999/xlink" x="0px" y="0px"
	 viewBox="0 0 512 512" style="enable-background:new 0 0 512 512;" xml:space="preserve">
<g>
	<path d="M256,256.032c52.938,0,96-43.063,96-96V96c0-52.938-43.063-96-96-96s-96,43.063-96,96v64.032
		C160,212.97,203.063,256.032,256,256.032z"/>
	<path d="M352,288.032c-29.21,38.617-43.85,32-96,32s-66.79,6.617-96-32c-32.665,11.334-96,27.824-96,64V480
		c0,17.658,14.313,32,32,32h320c17.686,0,32-14.342,32-32V352.032C448,315.856,392.665,302.701,352,288.032z"/>
</g>
<g>
</g>
<g>
</g>
<g>
</g>
<g>
</g>
<g>
</g>
<g>
</g>
<g>
</g>
<g>
</g>
<g>
</g>
<g>
</g>
<g>
</g>
<g>
</g>
<g>
</g>
<g>
</g>
<g>
</g>
</svg>
